<mxfile host="app.diagrams.net" agent="Mozilla/5.0 (Windows NT 10.0; Win64; x64) AppleWebKit/537.36 (KHTML, like Gecko) Chrome/124.0.0.0 Safari/537.36 SLBrowser/9.0.5.8121 SLBChan/33 SLBVPV/64-bit" version="24.7.7">
  <diagram name="第 1 页" id="QDzYGCVOOU6WMwvRuhGj">
    <mxGraphModel dx="2117" dy="541" grid="1" gridSize="10" guides="1" tooltips="1" connect="1" arrows="1" fold="1" page="1" pageScale="1" pageWidth="827" pageHeight="1169" math="0" shadow="0">
      <root>
        <mxCell id="0" />
        <mxCell id="1" parent="0" />
        <mxCell id="76ay6_5HHLco26l0Nqf6-5" value="" style="group" vertex="1" connectable="0" parent="1">
          <mxGeometry x="-140" y="260" width="310" height="140" as="geometry" />
        </mxCell>
        <mxCell id="76ay6_5HHLco26l0Nqf6-1" value="&lt;font style=&quot;font-size: 18px;&quot;&gt;数仓&lt;/font&gt;" style="shape=cylinder3;whiteSpace=wrap;html=1;boundedLbl=1;backgroundOutline=1;size=15;" vertex="1" parent="76ay6_5HHLco26l0Nqf6-5">
          <mxGeometry width="310" height="140" as="geometry" />
        </mxCell>
        <mxCell id="76ay6_5HHLco26l0Nqf6-2" value=".dat" style="shape=note;whiteSpace=wrap;html=1;backgroundOutline=1;darkOpacity=0.05;" vertex="1" parent="76ay6_5HHLco26l0Nqf6-5">
          <mxGeometry x="30" y="50" width="50" height="70" as="geometry" />
        </mxCell>
        <mxCell id="76ay6_5HHLco26l0Nqf6-4" value=".dat" style="shape=note;whiteSpace=wrap;html=1;backgroundOutline=1;darkOpacity=0.05;" vertex="1" parent="76ay6_5HHLco26l0Nqf6-5">
          <mxGeometry x="220" y="50" width="50" height="70" as="geometry" />
        </mxCell>
        <mxCell id="76ay6_5HHLco26l0Nqf6-6" value="&lt;font style=&quot;font-size: 18px;&quot;&gt;组件DB&lt;/font&gt;" style="shape=cylinder3;whiteSpace=wrap;html=1;boundedLbl=1;backgroundOutline=1;size=15;" vertex="1" parent="1">
          <mxGeometry x="600" y="280" width="130" height="130" as="geometry" />
        </mxCell>
        <mxCell id="76ay6_5HHLco26l0Nqf6-7" value="" style="shape=flexArrow;endArrow=classic;html=1;rounded=0;exitX=1;exitY=0.571;exitDx=0;exitDy=0;exitPerimeter=0;" edge="1" parent="1" source="76ay6_5HHLco26l0Nqf6-8" target="76ay6_5HHLco26l0Nqf6-6">
          <mxGeometry width="50" height="50" relative="1" as="geometry">
            <mxPoint x="420" y="370" as="sourcePoint" />
            <mxPoint x="470" y="320" as="targetPoint" />
          </mxGeometry>
        </mxCell>
        <mxCell id="76ay6_5HHLco26l0Nqf6-9" value="" style="shape=flexArrow;endArrow=classic;html=1;rounded=0;exitX=1;exitY=0.571;exitDx=0;exitDy=0;exitPerimeter=0;" edge="1" parent="1" source="76ay6_5HHLco26l0Nqf6-1" target="76ay6_5HHLco26l0Nqf6-8">
          <mxGeometry width="50" height="50" relative="1" as="geometry">
            <mxPoint x="170" y="340" as="sourcePoint" />
            <mxPoint x="600" y="336" as="targetPoint" />
          </mxGeometry>
        </mxCell>
        <mxCell id="76ay6_5HHLco26l0Nqf6-8" value="&lt;font style=&quot;font-size: 18px;&quot;&gt;接数脚本&lt;/font&gt;" style="text;html=1;align=center;verticalAlign=middle;resizable=0;points=[];autosize=1;strokeColor=none;fillColor=none;" vertex="1" parent="1">
          <mxGeometry x="314" y="315" width="100" height="40" as="geometry" />
        </mxCell>
        <mxCell id="76ay6_5HHLco26l0Nqf6-10" value="" style="shape=curlyBracket;whiteSpace=wrap;html=1;rounded=1;labelPosition=left;verticalLabelPosition=middle;align=right;verticalAlign=middle;rotation=90;" vertex="1" parent="1">
          <mxGeometry x="345" y="235" width="63.5" height="270" as="geometry" />
        </mxCell>
        <mxCell id="76ay6_5HHLco26l0Nqf6-11" value="Container" style="swimlane;" vertex="1" parent="1">
          <mxGeometry x="253.12" y="390" width="247.25" height="210" as="geometry" />
        </mxCell>
        <mxCell id="76ay6_5HHLco26l0Nqf6-12" value="&lt;font style=&quot;font-size: 18px;&quot;&gt;1.文件&lt;/font&gt;" style="text;html=1;align=center;verticalAlign=middle;resizable=0;points=[];autosize=1;strokeColor=none;fillColor=none;" vertex="1" parent="76ay6_5HHLco26l0Nqf6-11">
          <mxGeometry y="25" width="70" height="40" as="geometry" />
        </mxCell>
        <mxCell id="76ay6_5HHLco26l0Nqf6-14" value="&lt;font style=&quot;font-size: 18px;&quot;&gt;2.临时表&lt;/font&gt;" style="text;html=1;align=center;verticalAlign=middle;resizable=0;points=[];autosize=1;strokeColor=none;fillColor=none;" vertex="1" parent="76ay6_5HHLco26l0Nqf6-11">
          <mxGeometry x="-10" y="85" width="90" height="40" as="geometry" />
        </mxCell>
        <mxCell id="76ay6_5HHLco26l0Nqf6-15" value="&lt;font style=&quot;font-size: 18px;&quot;&gt;3.目标表&lt;/font&gt;" style="text;html=1;align=center;verticalAlign=middle;resizable=0;points=[];autosize=1;strokeColor=none;fillColor=none;" vertex="1" parent="76ay6_5HHLco26l0Nqf6-11">
          <mxGeometry x="-10" y="160" width="90" height="40" as="geometry" />
        </mxCell>
        <mxCell id="76ay6_5HHLco26l0Nqf6-16" value="" style="endArrow=classic;html=1;rounded=0;" edge="1" parent="76ay6_5HHLco26l0Nqf6-11" source="76ay6_5HHLco26l0Nqf6-12" target="76ay6_5HHLco26l0Nqf6-14">
          <mxGeometry width="50" height="50" relative="1" as="geometry">
            <mxPoint x="-242.75" y="160" as="sourcePoint" />
            <mxPoint x="-192.75" y="110" as="targetPoint" />
          </mxGeometry>
        </mxCell>
        <mxCell id="76ay6_5HHLco26l0Nqf6-17" value="" style="endArrow=classic;html=1;rounded=0;exitX=0.514;exitY=0.91;exitDx=0;exitDy=0;exitPerimeter=0;" edge="1" parent="76ay6_5HHLco26l0Nqf6-11" source="76ay6_5HHLco26l0Nqf6-14" target="76ay6_5HHLco26l0Nqf6-15">
          <mxGeometry width="50" height="50" relative="1" as="geometry">
            <mxPoint x="-172.75" y="200" as="sourcePoint" />
            <mxPoint x="-122.75" y="150" as="targetPoint" />
          </mxGeometry>
        </mxCell>
        <mxCell id="76ay6_5HHLco26l0Nqf6-18" value="拼接成insert语句，插入临时表" style="text;html=1;align=center;verticalAlign=middle;resizable=0;points=[];autosize=1;strokeColor=none;fillColor=none;" vertex="1" parent="76ay6_5HHLco26l0Nqf6-11">
          <mxGeometry x="47.25" y="65" width="180" height="30" as="geometry" />
        </mxCell>
        <mxCell id="76ay6_5HHLco26l0Nqf6-19" value="执行可能的前置后置语句，进行过滤" style="text;html=1;align=center;verticalAlign=middle;resizable=0;points=[];autosize=1;strokeColor=none;fillColor=none;" vertex="1" parent="76ay6_5HHLco26l0Nqf6-11">
          <mxGeometry x="27.25" y="130" width="220" height="30" as="geometry" />
        </mxCell>
        <mxCell id="76ay6_5HHLco26l0Nqf6-20" value="" style="curved=1;endArrow=classic;html=1;rounded=0;exitX=0.458;exitY=-0.03;exitDx=0;exitDy=0;exitPerimeter=0;entryX=0.448;entryY=-0.017;entryDx=0;entryDy=0;entryPerimeter=0;" edge="1" parent="1" source="76ay6_5HHLco26l0Nqf6-8" target="76ay6_5HHLco26l0Nqf6-6">
          <mxGeometry width="50" height="50" relative="1" as="geometry">
            <mxPoint x="500" y="210" as="sourcePoint" />
            <mxPoint x="550" y="160" as="targetPoint" />
            <Array as="points">
              <mxPoint x="400" y="210" />
              <mxPoint x="480" y="190" />
              <mxPoint x="560" y="190" />
            </Array>
          </mxGeometry>
        </mxCell>
        <mxCell id="76ay6_5HHLco26l0Nqf6-22" value="&lt;font style=&quot;font-size: 14px;&quot;&gt;从字段配置表中攫取配置信息&lt;/font&gt;" style="text;html=1;align=center;verticalAlign=middle;resizable=0;points=[];autosize=1;strokeColor=none;fillColor=none;" vertex="1" parent="1">
          <mxGeometry x="405" y="158" width="210" height="30" as="geometry" />
        </mxCell>
      </root>
    </mxGraphModel>
  </diagram>
</mxfile>
